<svg xmlns="http://www.w3.org/2000/svg" width="1200" height="675" viewBox="0 0 1200 675" role="img" aria-label="Monthly Revenue Trend chart">
  <rect width="1200" height="675" fill="#f8fafc"/>
  <text x="600" y="70" text-anchor="middle" font-family="Arial, sans-serif" font-size="42" fill="#0f172a" font-weight="700">Monthly Revenue Trend</text>
  <line x1="120" y1="580" x2="1080" y2="580" stroke="#334155" stroke-width="2"/>
  <line x1="120" y1="130" x2="120" y2="580" stroke="#334155" stroke-width="2"/>
  <polyline fill="none" stroke="#2563eb" stroke-width="6" points="150,530 220,500 290,510 360,470 430,455 500,430 570,440 640,410 710,390 780,365 850,340 920,310"/>
  <circle cx="150" cy="530" r="6" fill="#2563eb"/><circle cx="220" cy="500" r="6" fill="#2563eb"/><circle cx="290" cy="510" r="6" fill="#2563eb"/><circle cx="360" cy="470" r="6" fill="#2563eb"/><circle cx="430" cy="455" r="6" fill="#2563eb"/><circle cx="500" cy="430" r="6" fill="#2563eb"/><circle cx="570" cy="440" r="6" fill="#2563eb"/><circle cx="640" cy="410" r="6" fill="#2563eb"/><circle cx="710" cy="390" r="6" fill="#2563eb"/><circle cx="780" cy="365" r="6" fill="#2563eb"/><circle cx="850" cy="340" r="6" fill="#2563eb"/><circle cx="920" cy="310" r="6" fill="#2563eb"/>
</svg>
